<svg width="38" height="38" viewBox="0 0 38 38" fill="none" xmlns="http://www.w3.org/2000/svg">
<path d="M12.9066 29.4945C12.9066 29.643 12.7359 29.7617 12.5207 29.7617C12.2758 29.784 12.1051 29.6652 12.1051 29.4945C12.1051 29.3461 12.2758 29.2273 12.491 29.2273C12.7137 29.2051 12.9066 29.3238 12.9066 29.4945ZM10.5984 29.1605C10.5465 29.309 10.6949 29.4797 10.9176 29.5242C11.1105 29.5984 11.3332 29.5242 11.3777 29.3758C11.4223 29.2273 11.2812 29.0566 11.0586 28.9898C10.8656 28.9379 10.6504 29.0121 10.5984 29.1605ZM13.8789 29.0344C13.6637 29.0863 13.5152 29.2273 13.5375 29.398C13.5598 29.5465 13.7527 29.643 13.9754 29.591C14.1906 29.5391 14.3391 29.398 14.3168 29.2496C14.2945 29.1086 14.0941 29.0121 13.8789 29.0344ZM18.7625 0.59375C8.46836 0.59375 0.59375 8.40898 0.59375 18.7031C0.59375 26.934 5.77422 33.9773 13.1738 36.4563C14.1238 36.627 14.4578 36.0406 14.4578 35.5582C14.4578 35.098 14.4355 32.5598 14.4355 31.0012C14.4355 31.0012 9.24023 32.1145 8.14922 28.7895C8.14922 28.7895 7.30312 26.6297 6.08594 26.073C6.08594 26.073 4.38633 24.9078 6.20469 24.9301C6.20469 24.9301 8.05273 25.0785 9.06953 26.8449C10.6949 29.7098 13.4188 28.8859 14.4801 28.3961C14.6508 27.2086 15.1332 26.3848 15.6676 25.8949C11.5188 25.4348 7.33281 24.8336 7.33281 17.6937C7.33281 15.6527 7.89688 14.6285 9.08438 13.3223C8.89141 12.8398 8.26055 10.8508 9.27734 8.28281C10.8285 7.80039 14.3984 10.2867 14.3984 10.2867C15.8828 9.87109 17.4785 9.65586 19.0594 9.65586C20.6402 9.65586 22.2359 9.87109 23.7203 10.2867C23.7203 10.2867 27.2902 7.79297 28.8414 8.28281C29.8582 10.8582 29.2273 12.8398 29.0344 13.3223C30.2219 14.6359 30.9492 15.6602 30.9492 17.6937C30.9492 24.8559 26.5777 25.4273 22.4289 25.8949C23.1117 26.4812 23.6906 27.5945 23.6906 29.3387C23.6906 31.8398 23.6684 34.9348 23.6684 35.5434C23.6684 36.0258 24.0098 36.6121 24.9523 36.4414C32.3742 33.9773 37.4062 26.934 37.4062 18.7031C37.4062 8.40898 29.0566 0.59375 18.7625 0.59375ZM7.80781 26.1918C7.71133 26.266 7.73359 26.4367 7.85977 26.5777C7.97852 26.6965 8.14922 26.7484 8.2457 26.652C8.34219 26.5777 8.31992 26.407 8.19375 26.266C8.075 26.1473 7.9043 26.0953 7.80781 26.1918ZM7.00625 25.5906C6.9543 25.6871 7.02852 25.8059 7.17695 25.8801C7.2957 25.9543 7.44414 25.932 7.49609 25.8281C7.54805 25.7316 7.47383 25.6129 7.32539 25.5387C7.17695 25.4941 7.0582 25.5164 7.00625 25.5906ZM9.41094 28.2328C9.29219 28.3293 9.33672 28.552 9.50742 28.693C9.67812 28.8637 9.89336 28.8859 9.98984 28.7672C10.0863 28.6707 10.0418 28.448 9.89336 28.307C9.73008 28.1363 9.50742 28.1141 9.41094 28.2328ZM8.56484 27.1418C8.44609 27.216 8.44609 27.409 8.56484 27.5797C8.68359 27.7504 8.88398 27.8246 8.98047 27.7504C9.09922 27.6539 9.09922 27.4609 8.98047 27.2902C8.87656 27.1195 8.68359 27.0453 8.56484 27.1418Z" fill="black"/>
</svg>
