<svg width="38" height="38" viewBox="0 0 38 38" fill="none" xmlns="http://www.w3.org/2000/svg">
<path d="M9.81766 33.25H2.92422V11.0512H9.81766V33.25ZM6.36723 8.02305C4.16293 8.02305 2.375 6.19727 2.375 3.99297C2.375 2.93417 2.79561 1.91873 3.5443 1.17004C4.29298 0.421356 5.30842 0.000747681 6.36723 0.000747681C7.42603 0.000747681 8.44147 0.421356 9.19016 1.17004C9.93884 1.91873 10.3595 2.93417 10.3595 3.99297C10.3595 6.19727 8.57078 8.02305 6.36723 8.02305ZM35.6176 33.25H28.739V22.4438C28.739 19.8684 28.687 16.5656 25.155 16.5656C21.5709 16.5656 21.0217 19.3637 21.0217 22.2582V33.25H14.1357V11.0512H20.7471V14.0793H20.8436C21.7639 12.3352 24.012 10.4945 27.3659 10.4945C34.3425 10.4945 35.625 15.0887 35.625 21.0559V33.25H35.6176Z" fill="black"/>
</svg>
